# Blender v3.0.0 OBJ File: ''
# www.blender.org
mtllib straight_double.mtl
o straight_double_Cube.002
v -0.500001 1.000000 -0.500000
v -0.500001 1.000000 0.500000
v -0.500001 0.000000 0.500000
v 0.500001 -0.000000 -0.500000
v -0.500001 -0.013800 -0.500000
v -0.500001 -0.013800 0.500000
v 0.500001 -0.013800 0.500000
v 0.500001 -0.013800 -0.500000
v -0.521365 0.000295 -0.521364
v -0.521365 0.000295 0.521364
v 0.521365 0.000295 0.521364
v 0.521365 0.000295 -0.521364
v -0.521365 -0.014095 -0.521364
v -0.521365 -0.014095 0.521364
v 0.521365 -0.014095 0.521364
v 0.521365 -0.014095 -0.521364
v -0.492365 1.000000 -0.492363
v -0.492365 0.000000 0.492363
v 0.492365 1.000000 0.492363
v 0.492365 1.000000 -0.492363
v 0.492365 -0.000000 -0.492363
v -0.500001 -0.000000 -0.500000
v 0.500001 1.000000 -0.500000
v 0.500001 0.000000 0.500000
v 0.500001 1.000000 0.500000
v -0.500001 1.013800 -0.500000
v -0.500001 1.013800 0.500000
v 0.500001 1.013800 0.500000
v 0.500001 1.013800 -0.500000
v -0.521365 0.999705 -0.521364
v -0.521365 0.999705 0.521363
v 0.521365 0.999705 0.521363
v 0.521365 0.999705 -0.521364
v -0.521365 1.014095 -0.521364
v -0.521365 1.014095 0.521363
v 0.521365 1.014095 0.521363
v 0.521365 1.014095 -0.521364
v -0.492365 -0.000000 -0.492363
v -0.492365 1.000000 0.492363
v 0.492365 0.000000 0.492363
vt 0.668896 0.658810
vt 0.666344 0.656107
vt 0.337231 0.656107
vt 0.334680 0.658810
vt 0.667725 0.281296
vt 0.665173 0.283999
vt 0.333508 0.281294
vt 0.336060 0.283997
vt 0.625035 0.622129
vt 0.624982 0.336991
vt 0.630733 0.330899
vt 0.630789 0.628219
vt 0.668812 0.640764
vt 0.668845 0.283880
vt 0.676046 0.276256
vt 0.676011 0.648389
vt 0.355744 0.622159
vt 0.624984 0.622187
vt 0.630735 0.628280
vt 0.349992 0.628250
vt 0.355744 0.337019
vt 0.349992 0.330928
vt 0.606554 0.500299
vt 0.606554 0.666821
vt 0.604385 0.666821
vt 0.604385 0.500299
vt 0.606554 0.833345
vt 0.606554 0.999867
vt 0.604385 0.999867
vt 0.604385 0.833345
vt 0.606554 0.333776
vt 0.604385 0.333776
vt 0.331797 0.283883
vt 0.331830 0.640764
vt 0.324631 0.648389
vt 0.324596 0.276259
vt 0.331861 0.283810
vt 0.324663 0.276183
vt 1.136488 0.283583
vt 0.803675 0.283583
vt 0.803675 0.278719
vt 1.136488 0.278719
vt 0.470862 0.283583
vt 0.470862 0.278719
vt 0.138049 0.283583
vt 0.138049 0.278719
vt -0.194764 0.283583
vt -0.194764 0.278719
vt 0.345472 0.272536
vt 0.345472 -0.064091
vt 0.658474 -0.064092
vt 0.658475 0.272536
vt 0.001695 0.649382
vt 0.001695 0.293090
vt 0.332981 0.293090
vt 0.332981 0.649382
vt 0.674460 0.278333
vt 0.674460 -0.090623
vt 0.331398 -0.090623
vt 0.331398 0.278333
vt 0.002356 0.280294
vt 0.002355 -0.079551
vt 0.336946 -0.079551
vt 0.336946 0.280294
vt 0.677972 0.283453
vt 0.675312 0.280636
vt 0.332266 0.280638
vt 0.329607 0.283455
vt 0.335053 0.657303
vt 0.332981 0.651096
vt 0.001695 0.651096
vt -0.000377 0.657303
vt 0.670617 0.285898
vt 0.668030 0.283158
vt 0.334488 0.283158
vt 0.331901 0.285898
vt 0.340007 0.282790
vt 0.337418 0.280049
vt 0.003537 0.280048
vt 0.000948 0.282790
vt 0.663451 0.650255
vt 1.004338 0.650255
vt 1.004338 0.289237
vt 0.663451 0.289237
vt 0.333037 0.654942
vt 0.000688 0.654942
vt 0.000688 1.006916
vt 0.333037 1.006916
vt -0.001707 0.643389
vt 0.339149 0.643389
vt 0.339149 0.282404
vt -0.001707 0.282404
vt 0.328789 0.649519
vt 0.672366 0.649519
vt 0.672366 0.285653
vt 0.328789 0.285653
vt 0.625035 0.622129
vt 0.630789 0.628219
vt 0.630733 0.330899
vt 0.624982 0.336991
vt 0.668812 0.640764
vt 0.676011 0.648389
vt 0.676046 0.276256
vt 0.668845 0.283880
vt 0.355744 0.622159
vt 0.349992 0.628250
vt 0.630735 0.628280
vt 0.624984 0.622187
vt 0.349992 0.330928
vt 0.355744 0.337019
vt 0.606554 0.500299
vt 0.604385 0.500299
vt 0.604385 0.666821
vt 0.606554 0.666821
vt 0.606554 0.833345
vt 0.604385 0.833345
vt 0.604385 0.999867
vt 0.606554 0.999867
vt 0.606554 0.333776
vt 0.604385 0.333776
vt 0.331797 0.283883
vt 0.324596 0.276259
vt 0.324631 0.648389
vt 0.331830 0.640764
vt 0.324663 0.276183
vt 0.331861 0.283810
vt 1.136488 0.283583
vt 1.136488 0.278719
vt 0.803675 0.278719
vt 0.803675 0.283583
vt 0.470862 0.278719
vt 0.470862 0.283583
vt 0.138049 0.278719
vt 0.138049 0.283583
vt -0.194764 0.278719
vt -0.194764 0.283583
vn 0.0000 1.0000 -0.0000
vn 0.0000 0.9999 0.0138
vn -0.0138 -0.9999 0.0000
vn 0.0138 0.9999 -0.0000
vn -0.0138 0.9999 -0.0000
vn 1.0000 0.0000 0.0000
vn -1.0000 0.0000 0.0000
vn 0.0000 0.0000 -1.0000
vn 0.0000 0.0000 1.0000
vn 0.0138 -0.9999 0.0000
vn 0.0000 0.9999 -0.0138
vn 0.0000 -0.9999 0.0138
vn 0.0000 -0.9999 -0.0138
vn 0.0000 -1.0000 0.0000
usemtl vent.004
s 1
f 2/1/1 39/2/1 17/3/1 1/4/1
f 25/5/1 19/6/1 39/2/1 2/1/1
f 23/7/1 20/8/1 19/6/1 25/5/1
f 22/9/2 4/10/2 12/11/2 9/12/2
f 7/13/3 8/14/3 16/15/3 15/16/3
f 3/17/4 22/18/4 9/19/4 10/20/4
f 4/10/5 24/21/5 11/22/5 12/11/5
f 12/23/6 11/24/6 15/25/6 16/26/6
f 10/27/7 9/28/7 13/29/7 14/30/7
f 9/31/8 12/23/8 16/26/8 13/32/8
f 11/24/9 10/27/9 14/30/9 15/25/9
f 5/33/10 6/34/10 14/35/10 13/36/10
f 24/21/11 3/17/11 10/20/11 11/22/11
f 8/14/12 5/37/12 13/38/12 16/15/12
f 6/34/13 7/13/13 15/16/13 14/35/13
f 22/39/6 3/40/6 6/41/6 5/42/6
f 3/40/8 24/43/8 7/44/8 6/41/8
f 24/43/7 4/45/7 8/46/7 7/44/7
f 4/45/9 22/47/9 5/48/9 8/46/9
f 1/4/1 17/3/1 20/8/1 23/7/1
f 18/49/8 39/50/8 19/51/8 40/52/8
f 40/53/7 19/54/7 20/55/7 21/56/7
f 21/57/9 20/58/9 17/59/9 38/60/9
f 38/61/6 17/62/6 39/63/6 18/64/6
f 4/65/14 21/66/14 38/67/14 22/68/14
f 24/69/14 40/70/14 21/71/14 4/72/14
f 3/73/14 18/74/14 40/75/14 24/76/14
f 22/77/14 38/78/14 18/79/14 3/80/14
f 22/81/7 3/82/7 2/83/7 1/84/7
f 1/85/8 23/86/8 4/87/8 22/88/8
f 3/89/9 24/90/9 25/91/9 2/92/9
f 23/93/6 25/94/6 24/95/6 4/96/6
f 1/97/12 30/98/12 33/99/12 23/100/12
f 28/101/5 36/102/5 37/103/5 29/104/5
f 2/105/10 31/106/10 30/107/10 1/108/10
f 23/100/3 33/99/3 32/109/3 25/110/3
f 33/111/6 37/112/6 36/113/6 32/114/6
f 31/115/7 35/116/7 34/117/7 30/118/7
f 30/119/8 34/120/8 37/112/8 33/111/8
f 32/114/9 36/113/9 35/116/9 31/115/9
f 26/121/4 34/122/4 35/123/4 27/124/4
f 25/110/13 32/109/13 31/106/13 2/105/13
f 29/104/2 37/103/2 34/125/2 26/126/2
f 27/124/11 35/123/11 36/102/11 28/101/11
f 1/127/6 26/128/6 27/129/6 2/130/6
f 2/130/8 27/129/8 28/131/8 25/132/8
f 25/132/7 28/131/7 29/133/7 23/134/7
f 23/134/9 29/133/9 26/135/9 1/136/9
